<svg id="_0467_science_discovery" xmlns="http://www.w3.org/2000/svg" xmlns:xlink="http://www.w3.org/1999/xlink" viewBox="0 0 500 500" data-imageid="science-1-11" imageName="Science 1" class="illustrations_image" style="width: 151px;"><defs><style>.cls-1_science-1-11{fill:#020202;opacity:.1;}.cls-1_science-1-11,.cls-2_science-1-11,.cls-3_science-1-11,.cls-4_science-1-11,.cls-5_science-1-11,.cls-6_science-1-11,.cls-7_science-1-11,.cls-8_science-1-11,.cls-9_science-1-11,.cls-10_science-1-11,.cls-11_science-1-11,.cls-12_science-1-11,.cls-13_science-1-11,.cls-14_science-1-11{stroke-width:0px;}.cls-1_science-1-11,.cls-4_science-1-11{isolation:isolate;}.cls-2_science-1-11{fill:url(#linear-gradient);}.cls-3_science-1-11{fill:url(#radial-gradient);}.cls-4_science-1-11{opacity:.18;}.cls-4_science-1-11,.cls-14_science-1-11{fill:#68e1fd;}.cls-5_science-1-11{fill:url(#linear-gradient-4-science-1-11);}.cls-6_science-1-11{fill:url(#linear-gradient-2-science-1-11);}.cls-7_science-1-11{fill:url(#linear-gradient-3-science-1-11);}.cls-8_science-1-11{fill:#282328;}.cls-9_science-1-11{fill:#231f20;}.cls-10_science-1-11{fill:#e0a194;}.cls-11_science-1-11{fill:#c14834;}.cls-12_science-1-11{fill:#fff;}.cls-13_science-1-11{fill:#ffbbab;}</style><linearGradient id="linear-gradient-science-1-11" x1="2627.78" y1="-852.04" x2="2459.57" y2="-1021.61" gradientTransform="translate(-163.77 2911.06) rotate(-99.69) scale(1 -1)" gradientUnits="userSpaceOnUse"><stop offset="0" stop-color="#fff"/><stop offset="1" stop-color="#fff" stop-opacity="0"/></linearGradient><radialGradient id="radial-gradient_science-1-11" cx="271.04" cy="2166.45" fx="271.04" fy="2166.45" r="105.13" gradientTransform="translate(-31 2323.65) scale(1 -1)" gradientUnits="userSpaceOnUse"><stop offset="0" stop-color="#fff"/><stop offset=".66" stop-color="#fff" stop-opacity=".69"/><stop offset=".67" stop-color="#fff" stop-opacity=".61"/><stop offset=".68" stop-color="#fff" stop-opacity=".47"/><stop offset=".7" stop-color="#fff" stop-opacity=".34"/><stop offset=".72" stop-color="#fff" stop-opacity=".23"/><stop offset=".75" stop-color="#fff" stop-opacity=".15"/><stop offset=".78" stop-color="#fff" stop-opacity=".08"/><stop offset=".81" stop-color="#fff" stop-opacity=".03"/><stop offset=".86" stop-color="#fff" stop-opacity="0"/><stop offset="1" stop-color="#fff" stop-opacity="0"/></radialGradient><linearGradient id="linear-gradient-2-science-1-11" x1="291.45" y1="2151.44" x2="123.22" y2="1981.87" gradientTransform="translate(-68.66 2300.55) scale(1 -1)" xlink:href="#linear-gradient-science-1-11"/><linearGradient id="linear-gradient-3-science-1-11" x1="293.72" y1="2164.82" x2="243.05" y2="2273.59" gradientTransform="translate(-68.66 2300.55) scale(1 -1)" xlink:href="#linear-gradient-science-1-11"/><linearGradient id="linear-gradient-4-science-1-11" x1="307.79" y1="2240.03" x2="315.66" y2="1738.17" gradientTransform="translate(-68.66 2300.55) scale(1 -1)" gradientUnits="userSpaceOnUse"><stop offset="0" stop-color="#fff"/><stop offset=".13" stop-color="#fff" stop-opacity=".69"/><stop offset=".15" stop-color="#fff" stop-opacity=".61"/><stop offset=".2" stop-color="#fff" stop-opacity=".47"/><stop offset=".25" stop-color="#fff" stop-opacity=".34"/><stop offset=".3" stop-color="#fff" stop-opacity=".23"/><stop offset=".36" stop-color="#fff" stop-opacity=".15"/><stop offset=".44" stop-color="#fff" stop-opacity=".08"/><stop offset=".52" stop-color="#fff" stop-opacity=".03"/><stop offset=".65" stop-color="#fff" stop-opacity="0"/><stop offset="1" stop-color="#fff" stop-opacity="0"/></linearGradient></defs><g id="background_science-1-11"><path class="cls-4_science-1-11 targetColor" d="M346.75,107.63c9.2,17.08,18.56,35.67,25.69,53.54,7.2,18.18,22.79,33.59,37.19,46.26,15.85,14.04,33.08,26.53,47.99,41.56,14.91,15.03,27.67,33.15,31.82,53.9,4.69,23.45-2.14,47.99-13.81,68.9-3.79,6.79-8.15,13.35-13.83,18.66s-12.74,9.31-19.8,12.85c-18.84,9.42-38.64,16.72-59.55,19.54-21.77,2.93-43.91,1.63-65.65-1.06-29.23-3.6-58.17-9.73-87.58-11.47-21.2-1.2-42.47-.22-63.66,1.37-22.65,1.7-45.73,4-67.83-1.27-29.01-6.93-54.14-26.99-69.51-52.56-13.32-22.28-28.43-64.69-16.71-89.67,12.49-26.62,46.31-44.68,68.47-62.11,8.99-7.07,17.86-14.83,22.96-25.05,5.69-11.39,6.11-24.56,8.47-37.06,7.67-40.53,38.33-75.87,77.37-89.17,54.91-18.7,121.17-6.29,153.56,45.11,1.52,2.51,3,5.07,4.41,7.73Z" style="fill: rgb(0, 168, 232);"/></g><g id="technology_science-1-11"><path class="cls-2_science-1-11" d="M277.17,201.95l106.32,134.01,57.39-66.69-144.37-89.2s-16.14,9-19.34,21.88Z"/><circle class="cls-3_science-1-11" cx="240.04" cy="157.2" r="105.13"/><path class="cls-6_science-1-11" d="M191.26,187.65l-149.96,82.24,56.07,67.81,112.22-127.3s-6.14-17.42-18.33-22.75Z"/><path class="cls-7_science-1-11" d="M167.15,64.88l30.95,45.77,28.16-15.78-16.57-45.59s-35.6,4.91-42.54,15.6Z"/><g id="I4ccdY_science-1-11"><path class="cls-14_science-1-11 targetColor" d="M274.5,245.24c4.44,5.43,4.47,10.92-.11,16.45,2.32,2.32,3.55,5.52,3.38,8.79-.29,6.12-5.38,10.9-11.51,10.8h-7.02c-.22.68-.43,1.2-.6,1.85-2.74,9.9-12.98,15.71-22.88,12.97-6.27-1.73-11.18-6.62-12.95-12.89-.42-1.46-.98-2.06-2.54-1.96-2.03.12-4.07.1-6.09-.06-4.27-.15-8.04-2.83-9.6-6.8-1.8-3.86-1.18-8.42,1.58-11.66.22-.28.42-.56.62-.85.04-.11.07-.23.08-.35-4.43-5.4-4.43-10.95.07-16.54-2.96-2.94-4.06-7.27-2.88-11.28.7-3.15,2.91-5.75,5.9-6.96,1.66-.64,1.57-1.67,1.4-2.94-1.07-9.86-5.27-19.11-12-26.39-5.89-6.31-11.16-12.97-14.32-21.08-.86-2.22-1.46-4.53-2.34-6.74-.24-.61-1.03-1.42-1.57-1.43-8.77-.08-17.53-.06-26.48-.06-.06.6-.18,1.13-.18,1.66v18.73c-.16,1.04.48,2.03,1.5,2.3,5.68,2.15,8.97,8.11,7.75,14.06-1.44,6.86-8.16,11.26-15.02,9.82-5.09-1.07-9.02-5.13-9.91-10.26-1-5.83,2.29-11.54,7.82-13.62,1.09-.3,1.76-1.39,1.56-2.5v-21.69c0-4.32.86-5.19,5.11-5.19h27.43c-2.23-19.84,3.41-36.86,17.38-50.83,10.53-10.76,24.87-16.94,39.93-17.2,18.52-.55,34.2,6.21,46.56,19.99,12.36,13.77,17.17,29.92,14.76,48.32h26.14c0-.73.11-1.34.11-1.96v-18.31c.24-1.06-.4-2.12-1.45-2.4-5.68-2.14-8.98-8.08-7.8-14.04,1.37-6.87,8.05-11.32,14.92-9.95,5.14,1.03,9.12,5.11,10.01,10.27.99,5.9-2.32,11.68-7.92,13.8-.46.18-.9.38-1.43.61v23.8c0,3.77-.8,4.57-4.55,4.57h-26.51c-1.14-.18-2.21.6-2.39,1.74,0,.04-.01.07-.01.11-2.53,8.97-7.22,17.17-13.65,23.91-5.85,6.21-10.73,12.98-12.93,21.34-.73,3.13-1.26,6.3-1.58,9.5.02.77.41,1.47,1.04,1.91,6.99,4.08,8.49,11.71,3.48,18-.12.2-.24.41-.34.62ZM240.26,241.64h25.03c1.7.18,3.37-.57,4.38-1.96,1.23-1.51,1.48-3.59.64-5.35-.99-1.93-3.06-3.07-5.22-2.86h-49.62c-3.66,0-5.82,2-5.77,5.21s2.12,4.93,5.76,4.93l24.81.02ZM240.34,248.01h-25.04c-3.6,0-6,2.62-5.55,5.88.36,2.68,2.46,4.26,5.83,4.26,10.32,0,20.63,0,30.93,0h18.31c3.01,0,5.03-1.48,5.54-3.86.69-2.69-.93-5.44-3.62-6.14-.51-.13-1.04-.18-1.57-.15h-24.82ZM240.26,264.53h-25.64c-1.96-.15-3.79.97-4.55,2.78-.89,1.68-.58,3.74.77,5.09,1.09,1.04,2.5,1.68,4.01,1.82,16.95.12,33.92.08,50.87.06.7-.02,1.39-.15,2.04-.41,2.05-.75,3.31-2.82,3.02-4.99-.25-2.24-2.01-4.02-4.25-4.29-.77-.07-1.53-.1-2.3-.07h-23.97ZM228.6,280.74c.78,5.28,6.14,9.35,12,9.12,5.52-.22,10.64-4.49,10.92-9.12h-22.91ZM322.53,127.59c.1,3.53,3.04,6.32,6.57,6.25,3.39-.11,6.09-2.88,6.12-6.27-.04-3.54-2.93-6.38-6.47-6.37-3.47.07-6.25,2.92-6.23,6.39ZM151.35,208.41c3.44.03,6.25-2.74,6.27-6.18,0-.02,0-.04,0-.06-.19-3.5-3.01-6.28-6.51-6.41-3.44.18-6.14,3.03-6.14,6.48.09,3.45,2.93,6.19,6.38,6.17Z" style="fill: rgb(0, 168, 232);"/></g><path class="cls-5_science-1-11" d="M263.14,224c.58-3.35.95-6.48,1.66-9.6,2.4-10.26,7.89-18.73,15.08-26.27,8.15-8.46,13.12-19.48,14.06-31.19,2.77-29.51-18.9-55.68-48.41-58.45-4.53-.43-9.1-.27-13.59.45-32.88,5.19-53.3,40.19-41.73,71.44,3,8.12,7.97,14.86,13.77,21.16,6.72,7.14,11.29,16.02,13.2,25.64.44,2.24.67,4.52,1.01,6.79l44.95.02Z"/><path class="cls-12_science-1-11" d="M251.98,183.7c-.67,3.04-1.2,5.6-1.8,8.18-.7,3.28-1.3,3.79-4.67,3.79h-12.62c-3.16,0-3.89-.61-4.5-3.74-.58-2.94-1.2-5.88-1.78-9.19l-7.44,4.91c-2.26,1.49-3.5,1.39-5.39-.47-3.08-3.06-6.17-6.13-9.21-9.23-1.9-1.91-2-3.17-.54-5.39,1.69-2.57,3.41-5.11,5.27-7.91l-7.89-1.98c-2.88-.72-3.46-1.44-3.47-4.34v-13.46c-.24-1.87,1.08-3.57,2.94-3.81.04,0,.08,0,.11-.01,3.07-.64,6.13-1.33,9.6-2.1l-4.8-7.08c-1.66-2.4-1.55-3.6.52-5.71,2.94-2.99,5.92-5.97,8.93-8.94,2.06-2.04,3.3-2.15,5.72-.54l7.71,5.12c.61-2.96,1.2-5.69,1.75-8.4.54-2.54,1.42-3.26,4.06-3.28h13.88c2.51,0,3.38.73,3.92,3.17.68,3.06,1.36,6.12,2.09,9.48,2.56-1.73,4.8-3.3,7.2-4.8,2.4-1.5,3.6-1.5,5.54.44,3.03,3.02,6.05,6.04,9.07,9.08,1.96,1.97,2.08,3.29.58,5.57-1.73,2.62-3.47,5.22-5.37,8.09l8.66,1.85c2.4.53,3.17,1.36,3.18,3.9v13.68c0,2.64-.73,3.42-3.36,3.95l-9.6,1.91,4.8,7.28c1.64,2.51,1.55,3.6-.55,5.7-2.87,2.89-5.75,5.76-8.63,8.64-2.4,2.4-3.44,2.51-6.21.7l-7.7-5.05ZM203.6,147.3c0,3.35,0,6.57.06,9.79.19.65.67,1.17,1.31,1.4,1.9.49,3.85.74,5.77,1.13,3.21.46,5.43,3.43,4.97,6.64-.14.99-.54,1.93-1.15,2.73-.43.65-.86,1.28-1.28,1.93q-3,4.5.78,8.28c3.2,3.19,3.3,3.32,6.99.72,2.83-2,5.45-3.13,8.79-1.07,1.4.88,2.47,1.67,2.78,3.37.42,2.27.94,4.52,1.51,6.77.13.48.66,1.2,1.03,1.2,2.99.11,6,0,9.01,0,.49-2.4.94-4.64,1.38-6.83.89-3.48,4.43-5.58,7.91-4.7.56.14,1.09.36,1.6.64,2.17,1.39,4.33,2.81,6.8,4.4,1.2-1.39,2.4-2.74,3.6-3.97,3.11-3.16,3.28-3.25.7-6.83-2.1-2.92-3.13-5.6-1.07-8.99.6-1.34,1.79-2.33,3.22-2.69,2.33-.47,4.67-.94,6.97-1.55.59-.21,1.04-.69,1.2-1.3.11-2.86.06-5.72.06-8.72-2.54-.48-4.95-.92-7.34-1.4-3.3-.93-5.23-4.36-4.3-7.67.11-.38.25-.76.43-1.12,1.26-2.1,2.59-4.18,3.98-6.19.66-.96.76-1.62-.2-2.48-1.66-1.5-3.24-3.11-4.8-4.8-.82-.89-1.46-1.06-2.48-.31-1.51,1.13-3.14,2.1-4.74,3.13-2.8,1.77-6.51.93-8.27-1.88-.4-.64-.68-1.35-.82-2.09-.54-2.71-1.12-5.42-1.66-8.05h-9.5c-.32,1.42-.62,2.7-.91,4s-.56,2.75-.89,4.1c-.86,3.02-4,4.77-7.02,3.92-.45-.13-.88-.31-1.29-.55-2.53-1.62-5.03-3.28-7.82-5.09l-5.4,5.69-1.28,1.54,4.03,6.2c1.67,2.86.69,6.54-2.17,8.2-.48.28-1,.49-1.54.63l-8.95,1.85Z"/><path class="cls-12_science-1-11" d="M261.59,153.35c-.11,11.89-9.84,21.43-21.73,21.32-11.89-.11-21.43-9.84-21.32-21.73.11-11.86,9.8-21.39,21.65-21.32,11.9.11,21.46,9.83,21.39,21.73ZM224.85,152.74c-.09,8.42,6.65,15.32,15.07,15.43,8.33-.08,15.1-6.74,15.3-15.07.13-8.37-6.54-15.26-14.91-15.39-.05,0-.11,0-.16,0-8.33.04-15.11,6.71-15.3,15.03Z"/></g><g id="character_science-1-11"><path class="cls-13_science-1-11" d="M370.92,371.04c2.69,1.46,5.46,2.99,7.28,5.45,1.68,2.52,2.56,5.48,2.53,8.51.14,6.59-2.26,12.98-6.72,17.84-.54.7-1.3,1.19-2.16,1.39-.66.03-1.3-.14-1.86-.49-3.07-1.67-4.7-5.09-5.79-8.4s-1.9-6.83-4.02-9.6c-4-5.22-18.97-10.2-11.77-18.97,5.91-7.41,16.8,1.2,22.51,4.27Z"/><path class="cls-8_science-1-11" d="M323.52,289.99c-4.56,7.3-8.66,14.87-12.3,22.67-6.35,13.68-6.42,25.28,4.04,36.7,9.6,10.45,19.27,21.01,31.07,28.79,2.77,1.85,6,3.6,9.27,2.95,4.8-.95,7.2-6.89,6.24-11.71s-4.41-8.73-7.57-12.51c-5.37-6.41-19.54-19.44-16.6-27.68,3.94-10.99,15.43-19.2,21.22-29.26.73-.99,1.03-2.23.82-3.44-.3-.91,3.13-7.83,2.4-8.4-7.5-5.35-19.89-3.48-28.46-6.87-.84-.42-1.78-.6-2.72-.53-1.33.43-2.44,1.37-3.08,2.62-1.49,2.24-2.93,4.45-4.33,6.67Z"/><path class="cls-14_science-1-11 targetColor" d="M381.1,374.35s4.18.31,5.34,3.04,3.47,26.03-11.37,33.59c-14.84,7.56-2.05-21.26-2.05-21.26l8.09-15.37Z" style="fill: rgb(0, 168, 232);"/><path class="cls-12_science-1-11" d="M372.69,371.08c-1.1.85-1.42,2.38-.76,3.6,1.2,2.2,1.58,7.79-1.28,11.23s-8.15,2.8-9.13,4.73,2.74,16.68,6.24,19.12,8.91-1.46,12.18-7.2,5.75-20.96,3.91-25-8.54-6.87-11.16-6.48Z"/><path class="cls-13_science-1-11" d="M302.64,376.75c.34,3.04.65,6.19-.34,9.08-1.1,2.82-3.04,5.23-5.54,6.92-5.34,3.87-11.97,5.53-18.5,4.64-.89-.04-1.74-.39-2.4-.98-.4-.52-.63-1.15-.66-1.81-.37-3.47,1.51-6.77,3.6-9.6s4.55-5.45,5.61-8.77c1.99-6.24-2.4-21.39,8.88-20.54,9.54.76,8.63,14.54,9.35,21.06Z"/><path class="cls-9_science-1-11" d="M342.25,291.64c-8.59.41-17.14,1.34-25.61,2.81-14.85,2.57-24.43,9.12-27.86,24.22-3.14,13.81-6.3,27.8-6,41.99.07,3.34.47,6.98,2.86,9.3,3.54,3.44,9.8,2.04,13.2-1.54s4.67-8.59,6-13.34c2.22-8.06,4.8-27.14,13.3-29.41,14.4-3.86,29.3,4.94,43.3-.74,4.97-1.86,9.7-4.33,14.06-7.35,4.38-3.07,7.73-7.4,9.6-12.42.84-2.66,1.29-5.44,1.32-8.23.15-2.31.06-4.62-.28-6.91-.48-2.63-.94-2.32-3.6-2.26-4.52.1-9.02.5-13.51,1.02-8.9.95-17.78,2.4-26.78,2.86Z"/><path class="cls-14_science-1-11 targetColor" d="M305.71,387s2.12,3.6.54,6.12c-1.58,2.52-19.41,17.67-34.12,9.79-14.71-7.88,16.3-13.77,16.3-13.77l17.28-2.14Z" style="fill: rgb(0, 168, 232);"/><path class="cls-12_science-1-11" d="M303.62,378.21c-1.34-.43-2.79.18-3.41,1.44-1.2,2.21-5.51,5.73-9.97,5.34s-6.93-5.1-9.08-4.8-12.15,11.77-12.17,16c-.01,4.23,6.27,6.49,12.8,6,6.53-.49,20.5-7.2,22.79-11.03,2.29-3.83.84-11.04-.97-12.96Z"/><path class="cls-12_science-1-11" d="M305.85,237.87c.2,3.49,1.33,6.54,4.37,7.55.25.09.51.17.78.22,5.58,1.12,12.9-3.13,18-6.84,2.12-1.54,4.16-3.19,6.09-4.95v-37.35l-27.14,27.79s-2.48,7.46-2.1,13.59Z"/><path class="cls-12_science-1-11" d="M328.79,238.68c0,1.74-.22,3.52-.23,5.27,0,9.6,2.24,19.6-.64,29.06-.65,2.11-1.55,4.37-.8,6.45.84,1.74,2.27,3.12,4.04,3.89,8.49,4.64,18.33,6.07,27.92,7.41,7.2,1.02,17.46,3.16,24.13-.73,2.84-1.66,3.8-4.74,4.71-7.81,2.89-9.79,3.74-20.31,4.5-30.44.1-1.33.19-2.68.28-4.01.55-9.24.74-18.48.56-27.73-.13-6.71-.66-13.95-5.04-19.02-5.83-6.74-17.1-11.21-25.65-12.78-2.76-.57-5.59-.72-8.4-.47-3.99.64-7.85,1.95-11.41,3.88-4.25,2.1-8.03,3.88-10.11,8.07-2.29,4.85-3.88,10-4.74,15.3-.78,4.97-.87,10.02-.28,15.01.25,2.4.89,4.88,1.13,7.31,0,.44.02.89.02,1.33Z"/><path class="cls-1_science-1-11" d="M368.15,293.3c2.8.83,9.25-1.73,11.4-2.11,1.28-.23,2.4-.86,3.72-1.2,6.38-1.6,7.14-19.54,7.77-24.37,1.66-12.78,4.19-25.99,4.34-38.8.06-4.93-.07-9.97-1.69-14.62s-4.93-8.97-9.6-10.64c-.89-.38-1.88-.49-2.83-.31-3.9,1-4.7,7.41-5.37,10.53-1.01,4.8-2.71,9.72-6.86,12.66-10.09,7.2-27.11,1.86-38.02.08-.97-.26-2-.22-2.95.11-1.41.88-2.04,2.59-1.56,4.18.51,1.52,1.19,2.99,2.03,4.35,2.62,5.24,1.92,11.49,3.4,17.17,1.78,6.83,6.66,12.48,12.3,16.71,5.64,4.24,12.07,7.2,18.3,10.56,1.44.65,2.74,1.57,3.84,2.7,1.3,1.64,1.96,3.69,1.86,5.78,0,1.34-1.7,5.42-1.2,6.37.25.43.66.74,1.14.85Z"/><path class="cls-13_science-1-11" d="M348.51,180.25c1.03,1.11,2.43,1.81,3.94,1.97,1.26.14,2.53.16,3.79.07h.71c.18-.03.36,0,.52.1.15.15.23.35.23.56.28,2.52.32,5.06.14,7.59h0c0,.46-.07.91-.12,1.37-.09.48-.05.97.12,1.43.36.53.91.89,1.54,1.01,1.11.37,2.26.57,3.43.59,2.5,0,4.8-1.26,6.98-2.46-.17-4.33.06-8.66.68-12.94.8-5.53,2.26-11.07,1.66-16.63-.13-2.18-.93-4.28-2.28-6-2-2.24-5.23-2.98-8.24-2.96-3.99-.07-7.92,1-11.31,3.1-1.2.85-1.39,1.93-1.68,3.35-.43,2.18-.78,4.39-1.02,6.6-.28,2.52-.44,5.05-.47,7.59-.02,1.94.1,4.14,1.39,5.67Z"/><path class="cls-11_science-1-11" d="M352.9,158.27c2.83.48,5.94,0,8.61,1.08,3.74,1.52,5.34,6.38,4.09,10.23,1.08.38,1.27-1.56,2.11-2.4s2.72.26,2.86,1.62c-.08,1.36-.49,2.69-1.2,3.85-1.03,2.39-1.2,5.06-.5,7.57.17.59.6,1.3,1.2,1.14s1.01-1.2,1.37-1.61c.58-.69,1.22-1.33,1.9-1.92,1.32-1.2,2.76-2.17,4.12-3.3,2.4-1.99,4.61-4.71,4.46-7.83-.05-1.29-.47-2.54-1.2-3.6-.63-.91-1.45-1.68-2.4-2.26-.37-.24-.82-.5-.9-.95-.02-.25.02-.5.1-.73.83-3.16-.94-6.55-3.6-8.53-2.73-1.82-5.84-2.97-9.09-3.37-2.09-.37-4.19-.66-6.29-.91-1.75-.09-3.46-.49-5.06-1.2.42-1.14.98-2.23,1.68-3.23-1.5.44-2.92,1.09-4.23,1.94.08-.73.28-1.44.58-2.11-2.29.79-4.71,1.66-6.23,3.6-1.79,2.49-1.88,5.82-.22,8.4,1.63,2.56,4.19,3.6,6.99,4.27.32.13.61.21.86.24Z"/><path class="cls-10_science-1-11" d="M356.24,182.29h.71c.18-.03.36,0,.52.1.15.15.23.35.23.56.28,2.52.32,5.06.14,7.59h0s7.2-1.84,7.01-10.8c-2.75,1.14-5.62,1.99-8.55,2.53h-.05Z"/><path class="cls-13_science-1-11" d="M268.88,207.21c1.54.97,3.6,1.26,4.59,2.81,1.2,1.81,0,4.13-.25,6.25-.27,2.34.4,4.69,1.85,6.55.44.58.94,1.12,1.49,1.6,2.38,1.93,5.33,3.03,8.4,3.11,0,0,1.69-6.79,1.64-7.49-.2-2.4-1.85-4.58-2.11-7.07-.11-2.63-.35-5.26-.72-7.87-1.1-5.11-4.55-9.4-9.3-11.58-.59-.26-1.43-.42-1.75.14-.11.24-.14.51-.08.77h0c.36,2.72,2.14,5.03,3.85,7.2-1.55-.89-3.21-1.56-4.94-2-.77-.2-1.91-.08-1.92.71.06.38.27.72.59.94l4.63,4.15c-1.88-.61-3.86-.83-5.83-.64-.33,0-.65.11-.91.31-.58.61.05,1.66.78,2.11Z"/><path class="cls-10_science-1-11" d="M268.88,207.21c1.54.97,3.6,1.26,4.59,2.81,1.2,1.81,0,4.13-.25,6.25-.27,2.34.4,4.69,1.85,6.55.54.33,1.12.6,1.73.8.42.19.89.23,1.33.11.72-.4,1.06-1.25.8-2.04-.28-.75-.62-1.47-1.03-2.16-.56-1.23-.64-2.63-.2-3.91.54-.99.88-2.07,1-3.19-.11-.7-.38-1.36-.78-1.94l-1.4-2.4c-.25-.36-.41-.77-.48-1.2-.07-.43.14-.85.52-1.06.47-.11.96.02,1.31.35.78.56,2.64,2.95,2.4.73-.29-1.5-.84-2.94-1.62-4.26-1.51-2.69-3.27-5.22-5.27-7.57-.21-.26-.44-.5-.7-.72h0c.36,2.72,2.14,5.03,3.85,7.2-1.55-.89-3.21-1.56-4.94-2-.77-.2-1.91-.08-1.92.71.06.38.27.72.59.94l4.63,4.15c-1.88-.61-3.86-.83-5.83-.64-.33,0-.65.11-.91.31-.61.68.01,1.73.74,2.18Z"/><path class="cls-13_science-1-11" d="M307.23,204.94c1.75.97,4.14,1.2,5.23,2.81,1.31,1.81,0,4.13-.28,6.25-.29,2.39.48,4.78,2.1,6.55.51.59,1.07,1.12,1.69,1.6,2.82,1.97,6.16,3.05,9.6,3.11,0,0,1.93-6.79,1.87-7.49-.23-2.4-2.1-4.58-2.4-7.07-.13-2.64-.41-5.26-.83-7.87-1.46-5.34-5.4-9.65-10.59-11.58-.67-.26-1.63-.42-2,.14-.12.24-.16.51-.1.77h0c.41,2.72,2.4,5.03,4.39,7.2-1.79-.9-3.68-1.57-5.64-2-.86-.2-2.17-.08-2.18.71,0,.38.36.68.67.94l5.28,4.15c-2.16-.61-4.41-.83-6.65-.64-.37,0-.73.11-1.04.31-.67.61.07,1.66.88,2.11Z"/><path class="cls-10_science-1-11" d="M307.23,204.94c1.75.97,4.14,1.2,5.23,2.81,1.31,1.81,0,4.13-.28,6.25-.29,2.39.48,4.78,2.1,6.55.63.33,1.29.6,1.97.8.49.19,1.02.23,1.52.11.79-.34,1.19-1.23.91-2.04-.33-.76-.73-1.48-1.2-2.16-.63-1.21-.71-2.63-.23-3.91.42-1.07,1.2-2.08,1.13-3.19-.13-.71-.44-1.38-.89-1.94l-1.6-2.4c-.28-.35-.47-.76-.55-1.2-.03-.45.25-.86.67-1.01.53-.11,1.08.02,1.5.35.89.56,3,2.95,2.75.73-.34-1.52-.97-2.97-1.85-4.26-1.74-2.72-3.75-5.25-6-7.57-.24-.26-.51-.5-.79-.72h0c.41,2.72,2.4,5.03,4.39,7.2-1.79-.9-3.68-1.57-5.64-2-.86-.2-2.17-.08-2.18.71,0,.38.36.68.67.94l5.28,4.15c-2.16-.61-4.41-.83-6.65-.64-.37,0-.73.11-1.04.31-.78.64-.04,1.68.77,2.14Z"/><path class="cls-12_science-1-11" d="M283.23,228.23c3.56,5.05,7.97,9.44,13.03,12.98,3.65,2.48,7.86,3.99,12.25,4.39.58.05,1.16-.01,1.72-.19.95-.27,1.8-.84,2.4-1.63,1.83-2.19,2.93-4.89,3.14-7.74.3-7.44-7.76-11.77-7.76-11.77,0,0-18.36-5.85-20.54-4.89-1.2.52-2.33,3.1-3.12,5.34-.71,1.88-1.12,3.52-1.12,3.52Z"/><path class="cls-12_science-1-11" d="M364.2,263.05h0c-7.17-2.54-10.92-10.42-8.38-17.6l12.48-35.18c2.55-7.18,10.42-10.93,17.59-8.39h0c7.17,2.54,10.92,10.42,8.38,17.6l-12.48,35.18c-2.55,7.18-10.42,10.93-17.59,8.39Z"/><path class="cls-12_science-1-11" d="M360.66,230l-30.36-16.56-11.71,13.28s38.23,38.56,49.52,37.04c11.29-1.52,6.51-13.48,6.51-13.48,0,0,4.26-12.81-13.96-20.28Z"/><path class="cls-1_science-1-11" d="M283.23,228.23c3.56,5.05,7.97,9.44,13.03,12.98,3.65,2.48,7.86,3.99,12.25,4.39.58.05,1.16-.01,1.72-.19.25.09.51.17.78.22,5.58,1.12,12.9-3.13,18-6.84v-.12l-1.73-11.16c-3.34,3.45-7.23,6.33-11.51,8.53-3.02,1.62-6.46,2.26-9.86,1.82-.92-.15-1.81-.42-2.65-.8-6.81-3.27-13.17-7.42-18.91-12.35-.71,1.88-1.12,3.52-1.12,3.52Z"/></g></svg>