<svg id="_0092_start_up" xmlns="http://www.w3.org/2000/svg" xmlns:xlink="http://www.w3.org/1999/xlink" viewBox="0 0 500 500" data-imageid="start-up-7" imageName="Start Up" class="illustrations_image" style="width: 151px;"><defs><style>.cls-1_start-up-7{fill:url(#linear-gradient);}.cls-1_start-up-7,.cls-2_start-up-7,.cls-3_start-up-7,.cls-4_start-up-7,.cls-5_start-up-7,.cls-6_start-up-7,.cls-7_start-up-7,.cls-8_start-up-7,.cls-9_start-up-7,.cls-10_start-up-7,.cls-11_start-up-7,.cls-12_start-up-7,.cls-13_start-up-7,.cls-14_start-up-7,.cls-15_start-up-7,.cls-16_start-up-7{stroke-width:0px;}.cls-2_start-up-7{isolation:isolate;opacity:.18;}.cls-2_start-up-7,.cls-16_start-up-7{fill:#68e3fd;}.cls-3_start-up-7{fill:url(#linear-gradient-11-start-up-7);}.cls-4_start-up-7{fill:url(#linear-gradient-10-start-up-7);}.cls-17_start-up-7{opacity:.69;}.cls-5_start-up-7{fill:url(#linear-gradient-4-start-up-7);}.cls-6_start-up-7{fill:url(#linear-gradient-2-start-up-7);}.cls-7_start-up-7{fill:url(#linear-gradient-3-start-up-7);}.cls-8_start-up-7{fill:url(#linear-gradient-8-start-up-7);}.cls-9_start-up-7{fill:url(#linear-gradient-9-start-up-7);}.cls-10_start-up-7{fill:url(#linear-gradient-7-start-up-7);}.cls-11_start-up-7{fill:url(#linear-gradient-5-start-up-7);}.cls-12_start-up-7{fill:url(#linear-gradient-6-start-up-7);}.cls-13_start-up-7{fill:#231f20;}.cls-14_start-up-7{fill:#fff;}.cls-15_start-up-7{fill:#ffaa71;}</style><linearGradient id="linear-gradient-start-up-7" x1="722.72" y1="3783.99" x2="749.32" y2="3532.26" gradientTransform="translate(-475.61 3882.98) scale(1 -1)" gradientUnits="userSpaceOnUse"><stop offset="0" stop-color="#231f20" stop-opacity="0"/><stop offset="1" stop-color="#231f20"/></linearGradient><linearGradient id="linear-gradient-2-start-up-7" x1="211.98" y1="184.41" x2="245.54" y2="162.58" gradientTransform="matrix(1,0,0,1,0,0)" xlink:href="#linear-gradient-start-up-7"/><linearGradient id="linear-gradient-3-start-up-7" x1="716.5" y1="3735.56" x2="719.56" y2="3710.6" xlink:href="#linear-gradient-start-up-7"/><linearGradient id="linear-gradient-4-start-up-7" x1="702.31" y1="3590.38" x2="772.59" y2="3635.71" xlink:href="#linear-gradient-start-up-7"/><linearGradient id="linear-gradient-5-start-up-7" x1="230.64" y1="100.48" x2="308.51" y2="149.02" gradientTransform="matrix(1,0,0,1,0,0)" xlink:href="#linear-gradient-start-up-7"/><linearGradient id="linear-gradient-6-start-up-7" x1="743.1" y1="3758.3" x2="714.64" y2="3680.8" xlink:href="#linear-gradient-start-up-7"/><linearGradient id="linear-gradient-7-start-up-7" x1="727.14" y1="3695.75" x2="789.21" y2="3738.45" xlink:href="#linear-gradient-start-up-7"/><linearGradient id="linear-gradient-8-start-up-7" x1="739.63" y1="3706.06" x2="730.23" y2="3701.02" gradientTransform="translate(-475.61 3882.98) scale(1 -1)" gradientUnits="userSpaceOnUse"><stop offset=".02" stop-color="#fff" stop-opacity="0"/><stop offset=".58" stop-color="#fff" stop-opacity=".39"/><stop offset=".68" stop-color="#fff" stop-opacity=".68"/><stop offset="1" stop-color="#fff"/></linearGradient><linearGradient id="linear-gradient-9-start-up-7" x1="667.54" y1="3694.81" x2="729.94" y2="3722.71" xlink:href="#linear-gradient-start-up-7"/><linearGradient id="linear-gradient-10-start-up-7" x1="684.35" y1="3702.29" x2="677.79" y2="3700.55" xlink:href="#linear-gradient-8-start-up-7"/><linearGradient id="linear-gradient-11-start-up-7" x1="722.21" y1="3744.93" x2="642.31" y2="3691.73" xlink:href="#linear-gradient-start-up-7"/></defs><g id="jetpack_start-up-7"><path class="cls-16_start-up-7" d="M142.66,148.65c.47-3.75,1.93-7.32,4.23-10.32.41-.56.97-.99,1.62-1.24,1.62-.48,3.09,1.05,4.02,2.47,5.36,8.27,7.64,18.09,9.74,27.72,2.5,11.52,4.97,23.13,4.97,34.91.06.67-.04,1.34-.31,1.95-.58.85-1.46,1.44-2.47,1.66-3.87,1.24-11.42,2.77-14.45-.93-2.68-3.27-2.61-10.94-3.45-14.83-2.89-13.58-6.33-27.52-3.89-41.4Z"/><path class="cls-16_start-up-7" d="M279.03,116.27c1.5.25,76.19,31.84,76.19,31.84,0,0,1.74,30.23,1.5,29.47s-201.07,18.74-200.81,16.99-2.76-38.01-2.76-38.01l65.31-32.97,60.57-7.32Z"/><path class="cls-1_start-up-7" d="M274.54,123.52c1.5.26,77.5,32.85,77.5,32.85,0,0,4.94,21.96,4.67,21.21s-201.07,18.74-200.81,16.99-2.26-29.77-2.26-29.77l65.5-33.71,55.4-7.56Z"/><path class="cls-16_start-up-7" d="M342.05,132.61c.47-3.75,1.92-7.31,4.21-10.32.41-.56.98-.99,1.63-1.24,1.62-.49,3.09,1.05,4.02,2.47,5.36,8.26,7.64,18.09,9.74,27.72,2.47,11.51,4.94,23.13,5.02,34.91.06.66-.05,1.33-.31,1.94-.57.86-1.46,1.45-2.47,1.66-3.87,1.24-11.43,2.77-14.45-.91-2.68-3.29-2.61-10.94-3.46-14.83-2.94-13.58-6.38-27.52-3.93-41.4Z"/></g><g id="smoke_start-up-7"><path class="cls-2_start-up-7" d="M253.33,469.4c1.74-9.81-5.77-12.53-11.95-20.32-6.18-7.79-13.59-15-17.15-24.35-2.04-5.4-2.88-11.68-7.2-15.51-2.92-2.58-6.98-3.58-9.82-6.25-5.97-5.61-3.99-15.32-1.92-23.25s2.99-18.12-3.87-22.59c-4.55-2.95-10.64-1.9-15.65-3.98-6.61-2.77-9.89-10.49-10.1-17.65s1.93-14.16,2.94-21.26c5.25-36.46-19.01-72.31-14.03-108.75-3.14-.19-7.18-.49-10.31-.67.33,25.95.65,52.12-4.29,77.6-4.94,25.48-15.61,50.55-34.33,68.53-7.18,6.88-16.25,14.6-14.83,24.44.84,6.06,5.72,11.86,3.71,17.62-.94,2.66-3.19,4.6-5.25,6.53-6.37,5.9-11.57,12.96-15.3,20.8-7.07,15.05-11.99,39.55-25.95,48.61,62.72,3.61,132.54-3.19,195.3.44Z"/><path class="cls-2_start-up-7" d="M487.49,473.21c-4.59-.8-9.23-1.66-13.44-3.65s-8-5.3-9.59-9.68c-1.04-2.88-1.08-6.01-1.53-9.04-.98-6.5-5.1-13.5-11.65-14.07-3.42-.3-7.04,1.21-10.19-.16-1.77-.77-3.06-2.34-4.1-3.96-4.48-6.98-5.51-15.55-8.22-23.39-2.7-7.84-8.3-15.84-16.54-16.78-3.49-.4-7.06.54-10.51-.12-6.9-1.3-11.18-8.61-11.98-15.58s.94-13.96,1.39-20.97c.4-6.32-.26-12.68-1.94-18.79-1.55-5.63-4.61-11.04-4.89-16.96-.53-12.01,11.12-23.27,7.24-34.6-2.31-6.8-9.42-10.74-13.16-16.86-2.47-4.09-3.39-8.95-4.23-13.68l-11.9-67.66c-2.89.68-6.82,3.78-9.71,4.46,5.12,55.45,9.78,113.86-13.32,164.53-4.77,10.46-10.97,20.75-20.53,27.19-5.94,3.98-12.85,6.18-19.5,8.87-10.7,4.24-21.28,9.89-28.36,18.96-7.08,9.07-9.89,22.25-4.26,32.29,4.07,7.28-.85,18.04-.37,26.36,18.63-.31,37.27-.22,55.9.07,28.06.45,56.11,1.36,84.15,2.27,14.11.46,28.22.92,42.33,1.32,7,.2,14,.38,21,.55,3.1.07,6.2.18,9.3.23,2.45.03,6.53-1.5,8.62-1.14Z"/></g><g id="character_start-up-7"><path class="cls-15_start-up-7" d="M209.11,192.79c2.29,1.78,4.36,4.31,7.27,4.49,1.39-.02,2.76-.33,4.02-.91,1.59-.4,2.97-1.36,3.92-2.69.3-.66.49-1.37.56-2.1.82-6.38-.12-12.86-2.72-18.75-.91-2.08-.41-8.07-2.47-9.06s-6.18,3.19-8.47,3.52c-.23.03-.46.09-.67.19-.74.41-.68,1.47-.53,2.3.94,5.09,1.38,10.25,1.33,15.42-.14-1.71-2.1-2.69-3.81-2.68-2.67,0-6.83,2.6-5.72,5.83.38,1.09,1.54,1.37,2.47,1.78,1.71.68,3.33,1.58,4.82,2.67Z"/><path class="cls-6_start-up-7" d="M209.11,192.79c2.29,1.78,4.36,4.31,7.27,4.49,1.39-.02,2.76-.33,4.02-.91,1.59-.4,2.97-1.36,3.92-2.69.3-.66.49-1.37.56-2.1.82-6.38-.12-12.86-2.72-18.75-.91-2.08-.41-8.07-2.47-9.06s-6.18,3.19-8.47,3.52c-.23.03-.46.09-.67.19-.74.41-.68,1.47-.53,2.3.94,5.09,1.38,10.25,1.33,15.42-.14-1.71-2.1-2.69-3.81-2.68-2.67,0-6.83,2.6-5.72,5.83.38,1.09,1.54,1.37,2.47,1.78,1.71.68,3.33,1.58,4.82,2.67Z"/><path class="cls-13_start-up-7" d="M235.76,68.15c4.6-1.52,9.58-1.38,14.09.37,1.06.38,2.07.89,2.99,1.53,3.55,2.39,6.81,5.56,8.01,9.65.51,1.72.62,3.55,1.17,5.25.44,1.77,1.73,3.21,3.44,3.86-.95,1.34-2.54,2.07-4.18,1.94,1.19,1.88,2.56,3.64,4.08,5.25-1.84.38-3.76.21-5.5-.49.53,1.27.79,2.64.75,4.02-1.51-.13-2.98-.59-4.3-1.33-.29.96-1.23,1.58-2.22,1.47-.97-.13-1.89-.49-2.69-1.04l-4.23-2.47c-3.23-1.67-6.18-3.82-8.77-6.36-1.55-1.77-2.88-3.72-3.94-5.82-1-1.85-6.39-3.77-6.55-5.92-.33-4.41,4.13-9.17,7.86-9.9Z"/><path class="cls-14_start-up-7" d="M219.32,165.85l1.79,7.23c.36,1.55.81,3.09,1.36,4.58,1.77,4.51,5.29,8.33,6.18,13.09.16.8.33,1.75,1.09,2.08.47.15.97.15,1.43,0,4.45-.99,9.08-.44,13.59-.87,3.39-.43,6.75-1.08,10.05-1.96,10.24-2.39,20.63-4.04,31.11-4.94,1.06-.1,2.34-.32,2.73-1.31.13-.4.17-.82.11-1.24-.61-9.5-4.94-18.28-7.95-27.31-.45-.83-.15-1.86.68-2.31.13-.07.26-.12.41-.16,6.77-3.4,13.2-7.46,19.18-12.11l-7.59-11.57c-4.39-6.7-9.17-13.74-16.47-17.05-4.56-2.05-9.69-2.47-14.68-2.47-5.38,0-10.74.51-16.07.99-3.39.14-6.76.58-10.07,1.31-9.03,2.47-22.71,9.68-25.95,16.83-8.65,18.99-4.46,37-5.24,38.1-.34.36-.6.78-.78,1.24-.26,1.01.83,1.96,1.87,2.01,1.05-.06,2.07-.39,2.95-.95,3.2-1.57,6.68-2.49,10.25-2.69-.05.23-.05-.79.02-.51Z"/><path class="cls-16_start-up-7" d="M257.13,150.38c.03,2.42-.1,4.85-.38,7.25,0,.44-.14.87-.38,1.24-.55.5-1.26.78-2,.79-8.43,1.08-16.98.8-25.5.54-.37,0-.73-.06-1.08-.2-.37-.23-.66-.57-.82-.98-.78-1.66-1.75-4.94.17-6.29s6.45-.77,8.65-.91l21.33-1.45Z"/><path class="cls-7_start-up-7" d="M257.13,150.38c.03,2.42-.1,4.85-.38,7.25,0,.44-.14.87-.38,1.24-.55.5-1.26.78-2,.79-8.43,1.08-16.98.8-25.5.54-.37,0-.73-.06-1.08-.2-.37-.23-.66-.57-.82-.98-.78-1.66-1.75-4.94.17-6.29s6.45-.77,8.65-.91l21.33-1.45Z"/><path class="cls-13_start-up-7" d="M232.73,190.35c0-.58-.9-.47-1.38-.16-14.83,9.44-29.02,19.77-43.25,29.98-3.33,2.24-6.42,4.81-9.23,7.67-2.72,2.98-4.94,6.71-4.94,10.74.05,2.21.51,4.4,1.36,6.44,5.49,14.68,18.78,24.72,28.29,37.22,4.75,6.18,8.74,13.29,15.14,17.78,1.24.88,2.66,1.75,3.14,3.2-.15.15,1.45-.38,1.3-.23,5.07-3.08,9.71-6.82,13.8-11.12-4.48-3.82-8.61-8.02-12.36-12.56-2.03-2.3-4.05-4.6-5.86-7.07-3.05-4.38-5.76-8.99-8.11-13.79-1.79-3.44-4.5-6.18-3.4-9.89,1.57-5.3,15.63-12.57,23.73-17.3,7.84-4.6,21.01-11.69,20.68-11.54,0,0-7.3,32.28,10.07,58.08,17.38,25.8,40.89,64.84,42.23,64.4s13.37-17.39,13.37-17.39l-32.98-56.17s9.47-69.47,1.61-83.77l-53.19,5.46Z"/><path class="cls-5_start-up-7" d="M232.73,190.35c0-.58-.9-.47-1.38-.16-14.83,9.44-29.02,19.77-43.25,29.98-3.33,2.24-6.42,4.81-9.23,7.67-2.72,2.98-4.94,6.71-4.94,10.74.05,2.21.51,4.4,1.36,6.44,5.49,14.68,18.78,24.72,28.29,37.22,4.75,6.18,8.74,13.29,15.14,17.78,1.24.88,2.66,1.75,3.14,3.2-.15.15,1.45-.38,1.3-.23,5.07-3.08,9.71-6.82,13.8-11.12-4.48-3.82-8.61-8.02-12.36-12.56-2.03-2.3-4.05-4.6-5.86-7.07-3.05-4.38-5.76-8.99-8.11-13.79-1.79-3.44-4.5-6.18-3.4-9.89,1.57-5.3,15.63-12.57,23.73-17.3,7.84-4.6,21.01-11.69,20.68-11.54,0,0-7.3,32.28,10.07,58.08,17.38,25.8,40.89,64.84,42.23,64.4s13.37-17.39,13.37-17.39l-32.98-56.17s9.47-69.47,1.61-83.77l-53.19,5.46Z"/><path class="cls-13_start-up-7" d="M230.67,308.63c.45,6.03,1.09,12.05,1.9,18.04.17,1.24.47,2.68,1.57,3.27,1.11.43,2.37.24,3.31-.49,2.22-1.54,3.88-3.78,4.71-6.35.81-2.56,1.33-5.2,1.56-7.87l1.33-10.71c.19-1.56.31-3.34-.78-4.46s-2.92-1.06-4.45-1.47c-2.35-.63-4.13-2.47-5.78-4.25-1.33,1.54-5.56,4.58-5.47,6.64,0,1.1,1.16,2.39,1.47,3.46.35,1.38.56,2.78.63,4.2Z"/><path class="cls-13_start-up-7" d="M310.44,342.27c.47,1.12.76,2.3.89,3.51.71,3.89,1.62,7.74,2.73,11.53.26,1.22.73,2.39,1.37,3.46.67,1.08,1.83,1.77,3.1,1.82,2.08,0,3.37-2.22,4.18-4.13,1.62-3.52,2.7-7.27,3.19-11.12.47-3.85-.3-7.74-2.2-11.12-.31-.59-.77-1.09-1.33-1.45-.77-.28-1.58-.47-2.4-.54-2.2-.54-3.53-2.78-5.5-3.89-.19-.13-.41-.21-.64-.21-.36.06-.69.26-.9.56-1.76,1.9-3.34,3.97-4.7,6.18-.9,1.47-1.16,1.67.11,2.83.86.72,1.57,1.6,2.1,2.58Z"/><path class="cls-15_start-up-7" d="M252.51,111.25c-.87,5.23-3.6,9.96-7.69,13.33-1.46,1.28-3.19,2.2-5.07,2.68-1.89.47-3.89.1-5.49-1.01-1.31-1.14-2.27-2.63-2.77-4.3-.11-.31-.22-.63-.32-.94-.65-2.25.08-4.67,1.88-6.18.24-.22.45-.47.63-.74.11-.19.19-.39.25-.61.77-2.72-.56-4.81-.82-7.17,0-1.28.55-2.49,1.51-3.34,2.19-2.62,5.13-4.5,8.43-5.4.43-.12.88-.17,1.32-.15,2.69.12,3.19,2.47,3.49,4.42.22,1.46.44,2.9.65,4.36.11,1.2.44,2.36.99,3.44.6,1.08,1.77,1.7,3,1.59Z"/><path class="cls-11_start-up-7" d="M245.72,98.15c-.22,2.94-.91,5.82-2.05,8.54-3.37,7.32-9.96,7.42-9.96,7.42.11-.19.19-.39.25-.61.77-2.72-.56-4.81-.82-7.17l12.58-8.18Z"/><path class="cls-15_start-up-7" d="M222.97,93.36c-.78,1.56-1.32,3.22-1.61,4.94-.24,2.44.54,4.87,2.16,6.71,1.64,1.83,3.97,2.88,6.43,2.9,1.6-.03,3.19-.37,4.67-.98,4.16-1.57,7.86-4.18,10.74-7.56.78,1.04,2.08,1.55,3.36,1.31,1.25-.27,2.39-.9,3.29-1.82.87-.66,1.39-1.68,1.41-2.77-.16-1.64-2.08-2.41-3.71-2.83,1.37-1.11,2.5-2.48,3.34-4.03,1.35-3.26.67-7-1.75-9.57-2.46-2.48-5.82-3.84-9.31-3.78-1.89,0-3.77.31-5.66.47-1.67.04-3.33.29-4.94.74-2.09.74-2.37,2.29-3.2,4.2l-5.22,12.05Z"/><path class="cls-16_start-up-7" d="M266.77,186.69h-5.7c-.6-.52-1.11-1.15-1.5-1.85-7.58-13.1-6.46-72.74-4.19-75.39,2.01-2.4,9.16-2.16,11.37-2.03h.67l3.4,2.09c-7.66,16.21-4.05,77.18-4.05,77.18Z"/><path class="cls-12_start-up-7" d="M263.16,184.83h-3.58c-7.58-13.1-6.46-72.74-4.19-75.39,2.01-2.4,9.16-2.16,11.37-2.03l.44.27c-7.66,16.16-4.04,77.14-4.04,77.14Z"/><path class="cls-16_start-up-7" d="M273.51,197.17c-3.73,0-7.18-1.97-9.08-5.18l-21.58-36.22c-.53-.99-.16-2.23.84-2.76.93-.49,2.08-.2,2.66.67l21.64,36.25c1.33,2.25,3.88,3.48,6.46,3.11,14.74-1.99,22.1-3.42,24.37-4.16v-5.31c-.04-1.13.84-2.07,1.96-2.11,1.13-.04,2.07.84,2.11,1.97,0,.51.16,4.94,0,6.82s-1.14,2.6-11.37,4.37c-5.41.94-11.95,1.87-16.47,2.47-.51.06-1.03.09-1.54.09Z"/><path class="cls-16_start-up-7" d="M212.2,203.79c-.69,0-1.37-.19-1.98-.53-1.76-1.2-2.98-3.05-3.37-5.14l-10.01-36.21c-.3-1.09.34-2.21,1.43-2.51,1.09-.3,2.21.34,2.51,1.43l10,36.21c.52,1.88,1.24,2.56,1.45,2.67,6.6-1.93,9.61-3.23,10.6-3.82.21-2.99,1.03-11.91,1.06-12.36.1-1.12,1.1-1.95,2.22-1.85s1.95,1.1,1.85,2.22h0c-.35,3.83-1.03,11.44-1.09,12.83-.07,1.68-1.48,2.74-5.81,4.37-2.56.95-5.62,1.89-7.75,2.47-.36.13-.73.2-1.11.22Z"/><path class="cls-10_start-up-7" d="M273.51,197.34c-3.73,0-7.18-1.96-9.08-5.17l-21.59-36.22c-.55-.98-.2-2.23.78-2.78.93-.52,2.11-.23,2.7.66l21.59,36.22c1.33,2.24,3.87,3.46,6.45,3.11,14.76-1.99,22.11-3.42,24.38-4.16v-5.33c-.04-1.13.84-2.07,1.97-2.11s2.07.84,2.11,1.97c0,.51.17,4.94,0,6.82s-1.14,2.6-11.37,4.37c-5.43.94-11.95,1.87-16.47,2.47-.49.08-.98.12-1.47.12Z"/><path class="cls-8_start-up-7" d="M273.51,197.01c-3.73,0-7.18-1.96-9.08-5.17l-21.58-36.22c-.62-.94-.37-2.2.57-2.83.94-.62,2.2-.37,2.83.57.04.05.07.11.1.17l21.59,36.21c1.33,2.25,3.88,3.48,6.46,3.13,14.74-2,22.1-3.44,24.37-4.18v-5.31c-.04-1.11.82-2.04,1.93-2.1,1.13-.03,2.07.85,2.11,1.98,0,.49.16,4.94,0,6.82-.16,1.88-1.14,2.58-11.37,4.36-5.41.94-11.95,1.87-16.47,2.47-.48.06-.97.1-1.46.1Z"/><path class="cls-9_start-up-7" d="M212.17,203.79c-.69,0-1.38-.19-1.98-.53-1.76-1.2-2.98-3.05-3.39-5.14l-10-36.21c-.32-1.08.3-2.21,1.38-2.53,1.08-.32,2.21.3,2.53,1.38,0,.02.01.04.02.07l10.01,36.21c.16,1.03.67,1.97,1.43,2.67,6.61-1.93,9.63-3.23,10.62-3.82.21-2.99,1.03-11.91,1.06-12.36.1-1.12,1.1-1.95,2.22-1.85s1.95,1.1,1.85,2.22h0c-.35,3.83-1.04,11.44-1.09,12.83-.07,1.68-1.48,2.74-5.82,4.37-2.55.95-5.61,1.89-7.74,2.47-.36.13-.73.2-1.11.22Z"/><g class="cls-17_start-up-7"><path class="cls-4_start-up-7" d="M212.4,203.72c-.69,0-1.37-.19-1.98-.53-1.76-1.2-2.98-3.05-3.39-5.14l-10-36.22c-.28-1.09.37-2.2,1.46-2.48,1.06-.27,2.15.34,2.47,1.4l10.01,36.22c.17,1.02.67,1.96,1.43,2.67,6.61-1.94,9.63-3.23,10.62-3.83.21-2.99,1.03-11.91,1.06-12.36.1-1.12,1.1-1.95,2.22-1.85s1.95,1.1,1.85,2.22h0c-.35,3.83-1.04,11.44-1.09,12.83-.07,1.68-1.48,2.74-5.81,4.36-2.56.96-5.62,1.9-7.75,2.47-.36.14-.73.22-1.11.25Z"/></g><path class="cls-15_start-up-7" d="M206.05,168.84c.96,0,1.92.2,2.81.57.9.38,1.56,1.16,1.8,2.1.17.88-.15,1.82.16,2.66s.89,1.24,1.11,1.9c.42,1.24-.67,2.67-.31,3.97.16.58.59,1.06.74,1.66.11.56.04,1.15-.2,1.67-1.24,3.21-5.12,4.7-8.58,4.6-2.03.05-4-.67-5.51-2.01-1.12-1.31-1.84-2.92-2.08-4.62-.46-2.15-.7-4.34-.72-6.54-.05-6.06,5.86-6.18,10.76-5.94Z"/><path class="cls-15_start-up-7" d="M298.43,142.77s17.03,32.48,12.19,37.72c-4.84,5.24-43.61,1.43-43.61,1.43-3.52-.17-6.29,2.88-9.78,3.36-2.59.33-5.14-.82-6.6-2.98-.37-.77-.92-1.44-1.59-1.95-.37-.21-.82-.28-1.24-.47-1.58-.74-1.85-2.87-1.8-4.62.05-.34,0-.68-.17-.98-.14-.17-.3-.31-.48-.42-1.03-.99-1.28-2.55-.61-3.81.71-1.22,1.82-2.15,3.15-2.62,1.24-.53,2.66-.8,3.97-1.24,1.75-.6,3.37-1.5,4.81-2.67.94-.77,2.09-1.71,3.23-1.24.41.19.78.48,1.08.83l3.71,3.81c.87,1.16,2.27,1.79,3.71,1.67l12.99.47c2.82.28,5.67.02,8.39-.77l-9.19-12.8c-.33-.47-.68-1.05-.44-1.58.17-.28.42-.51.72-.65,5.94-3.62,11.73-6.93,17.6-10.49Z"/><path class="cls-15_start-up-7" d="M249.6,95.06c.35-.1.72-.05,1.04.14.46.17.83.51,1.04.95.12.69-.11,1.39-.62,1.87-.56.8-1.43,1.33-2.4,1.46-.82.02-1.55-.48-1.85-1.24-.26-.78.13-1.63.89-1.94.36-.1.67,0,1-.27s.48-.79.9-.96Z"/><path class="cls-16_start-up-7" d="M232.73,190.35l-2.76.51-1.71.31-7.28-24.35c-13.36-22.71-8-46.96-5.88-49.43.87-1.03,3.26-1.82,5.76-2.39,2.37-.54,4.77-.96,7.18-1.24-6.69,14.73,4.68,76.59,4.68,76.59Z"/><path class="cls-3_start-up-7" d="M230,190.85l-1.71.31-7.28-24.35c-13.36-22.71-8-46.96-5.88-49.43.87-1.03,3.26-1.82,5.76-2.39s4.44-.64,4.44-.64c-6.61,14.47,4.35,74.76,4.67,76.5Z"/><path class="cls-15_start-up-7" d="M285.87,149.91s11.6,15.32,9.64,17.3-7.01,1.74-7.01,1.74c.45-.97.32-2.11-.33-2.95-1.1-1.64-8.76-12.36-8.76-12.36l6.46-3.73Z"/></g></svg>